<svg width="155" height="195" viewBox="0 0 155 195" fill="none" xmlns="http://www.w3.org/2000/svg">
<rect width="155" height="195" fill="#F5F5F5"/>
<g clip-path="url(#clip0_0_1)">
<rect x="1" y="1" width="153" height="193" fill="#F5D260"/>
<path d="M116.4 52.7283V52.7282L115.859 53.74C120.666 41.4273 116.295 26.2551 107.719 16.971C99.1432 7.68683 87.2205 3.44237 75.4809 1.75847C66.766 0.508467 57.7202 0.544573 49.4336 3.86198C37.4336 8.66598 28.2655 19.787 20.6108 31.3559C17.1094 36.6474 13.6669 42.6799 14.0156 49.2937C14.3395 55.4313 17.8451 60.6396 20.7159 65.8468C23.5871 71.0541 25.9847 77.5145 23.9242 83.1979C22.6964 86.5847 20.1012 89.0238 17.9956 91.7944C15.8901 94.5649 14.158 98.3096 15.1751 101.786C15.6266 103.116 16.4025 104.301 17.4268 105.226C18.451 106.151 19.6888 106.785 21.019 107.064C23.5645 107.68 26.2053 107.277 28.7833 106.873L95.6987 96.3663C100.246 95.6523 104.559 93.8063 108.271 90.9855C111.984 88.1647 114.984 84.4528 117.017 80.1664C119.051 75.8799 120.056 71.1461 119.948 66.3685C119.841 61.5908 118.623 56.9111 116.4 52.7283Z" fill="#2F2E41"/>
<path d="M98.92 67.3283C101.814 48.7935 89.7022 31.3298 71.8668 28.322C54.0314 25.3142 37.2266 37.9014 34.3324 56.4362C31.4381 74.971 43.5503 92.4347 61.3856 95.4425C79.221 98.4503 96.0257 85.8631 98.92 67.3283Z" fill="#A97676"/>
<path d="M97.6585 30.3269C96.8138 25.6841 92.2571 23.5605 88.353 22.5315C77.0289 19.529 65.249 18.8568 53.6766 20.5527C45.2406 21.803 36.6043 24.5598 30.4831 31.4027C25.5474 37.1647 22.7507 44.567 22.5957 52.2796C22.3461 56.8911 23.3376 61.4837 25.459 65.5425C27.6619 69.417 31.4164 72.2273 35.2922 72.1286L35.6848 73.5473C52.1106 71.169 67.3686 60.548 76.9784 44.8034C75.1748 51.496 71.5856 57.5216 66.6256 62.1836C77.7153 57.5723 87.355 49.8517 94.4709 39.8821C96.414 37.2018 98.3003 33.8593 97.6585 30.3269Z" fill="#2F2E41"/>
<path d="M153.721 154.771C134.81 177.133 108.194 190.87 79.6213 193.016C51.0482 195.162 22.809 185.545 1 166.241L10.3628 139.091C12.4787 134.269 15.8177 130.136 20.0217 127.136C24.2259 124.136 29.1364 122.381 34.227 122.061L40.1834 121.681L54.3864 108.951C54.3864 108.951 92.6557 107.531 92.0879 106.851L115.269 121.341L115.25 121.241L124.362 121.821C129.454 122.14 134.364 123.894 138.568 126.894C142.773 129.894 146.111 134.028 148.226 138.851L153.721 154.771Z" fill="#3F3D56"/>
</g>
<rect x="1" y="1" width="153" height="193" stroke="#F5D260" stroke-dasharray="2 2"/>
<defs>
<clipPath id="clip0_0_1">
<rect x="1" y="1" width="153" height="193" fill="white"/>
</clipPath>
</defs>
</svg>
