<svg width="590" height="578" viewBox="0 0 590 578" fill="none" xmlns="http://www.w3.org/2000/svg">
<rect width="590" height="578" fill="#E44178" fill-opacity="0.9"/>
<g id="programmer 1" clip-path="url(#clip0_0_1)">
<path id="Vector" d="M494.712 436.21H95.2779C88.0171 436.21 81.0537 439.036 75.9196 444.065C70.7854 449.095 67.9011 455.917 67.9011 463.03C67.9011 470.143 70.7854 476.965 75.9196 481.995C81.0537 487.024 88.0171 489.85 95.2779 489.85H494.712C498.6 489.851 502.443 489.039 505.985 487.468C509.527 485.896 512.685 483.603 515.25 480.74C516.411 479.446 517.443 478.046 518.332 476.56C519.021 475.42 519.618 474.23 520.119 473C521.786 468.931 522.409 464.524 521.934 460.164C521.458 455.804 519.898 451.626 517.39 447.994C514.882 444.363 511.503 441.389 507.549 439.335C503.595 437.28 499.188 436.207 494.712 436.21V436.21Z" fill="#CCCCCC"/>
<path id="Vector_2" d="M520.496 475.34C511.629 485.634 502.038 495.307 491.793 504.29H98.2075C87.9626 495.307 78.3713 485.634 69.5037 475.34H520.496Z" fill="#423F61"/>
<path id="Vector_3" d="M327.95 375.07H261.682C261.325 375.066 260.97 375.12 260.631 375.23C259.912 375.448 259.282 375.886 258.836 376.48C258.39 377.074 258.149 377.792 258.151 378.53V481.09H331.492V378.53C331.492 378.075 331.4 377.624 331.221 377.204C331.043 376.784 330.782 376.402 330.453 376.081C330.124 375.759 329.734 375.505 329.304 375.331C328.875 375.158 328.415 375.069 327.95 375.07ZM302.87 425.67C302.872 427.334 302.312 428.951 301.278 430.27C300.29 431.55 298.917 432.494 297.353 432.969C295.789 433.445 294.112 433.427 292.558 432.919C291.005 432.411 289.653 431.438 288.694 430.138C287.735 428.837 287.216 427.274 287.212 425.67V413.77C287.231 411.748 288.064 409.815 289.53 408.392C290.996 406.969 292.977 406.171 295.041 406.171C297.105 406.171 299.085 406.969 300.551 408.392C302.018 409.815 302.851 411.748 302.87 413.77V425.67Z" fill="#232236"/>
<path id="Vector_4" d="M257.926 477.81V487.7C257.926 488.213 258.133 488.705 258.502 489.068C258.871 489.432 259.373 489.637 259.896 489.64H329.747C330.27 489.636 330.77 489.43 331.139 489.066C331.507 488.703 331.715 488.212 331.717 487.7V477.81H257.926Z" fill="#423F61"/>
<path id="Vector_5" d="M437.682 215.02H154.421C151.987 215.023 149.654 215.971 147.932 217.656C146.21 219.341 145.24 221.626 145.234 224.01V411.27C145.236 413.656 146.204 415.944 147.927 417.632C149.649 419.319 151.985 420.268 154.421 420.27H437.682C440.118 420.268 442.453 419.319 444.176 417.632C445.898 415.944 446.867 413.656 446.868 411.27V224.01C446.863 221.626 445.893 219.341 444.171 217.656C442.449 215.971 440.115 215.023 437.682 215.02V215.02Z" fill="#423F61"/>
<path id="Vector_6" d="M435.314 221.52H156.779C155.476 221.523 154.227 222.032 153.306 222.935C152.386 223.839 151.869 225.063 151.869 226.34V408.96C151.871 410.235 152.389 411.457 153.309 412.359C154.23 413.26 155.477 413.768 156.779 413.77H435.314C436.615 413.768 437.863 413.26 438.783 412.359C439.703 411.457 440.221 410.235 440.224 408.96V226.34C440.224 225.063 439.707 223.839 438.786 222.935C437.866 222.032 436.617 221.523 435.314 221.52V221.52Z" fill="#DD6262"/>
<path id="Vector_7" d="M384.051 489.48L381.479 477.51C381.372 477.022 381.143 476.568 380.811 476.189C380.479 475.81 380.056 475.518 379.58 475.34C379.235 475.208 378.868 475.14 378.498 475.14H217.922C217.552 475.14 217.185 475.208 216.84 475.34C216.364 475.518 215.941 475.81 215.609 476.189C215.278 476.568 215.048 477.022 214.942 477.51L212.369 489.48C212.276 489.915 212.283 490.364 212.39 490.795C212.497 491.227 212.7 491.63 212.986 491.975C213.271 492.319 213.631 492.597 214.04 492.789C214.449 492.98 214.897 493.079 215.35 493.08H381.06C381.515 493.082 381.964 492.984 382.374 492.791C382.785 492.599 383.145 492.318 383.428 491.97C383.714 491.626 383.919 491.225 384.027 490.794C384.134 490.363 384.143 489.914 384.051 489.48V489.48Z" fill="#232236"/>
<path id="Vector_8" d="M223.705 477.296H219.598C219.322 477.296 219.099 477.514 219.099 477.784V479.808C219.099 480.077 219.322 480.296 219.598 480.296H223.705C223.98 480.296 224.203 480.077 224.203 479.808V477.784C224.203 477.514 223.98 477.296 223.705 477.296Z" fill="#423F61"/>
<path id="Vector_9" d="M233.912 477.296H229.805C229.53 477.296 229.307 477.514 229.307 477.784V479.808C229.307 480.077 229.53 480.296 229.805 480.296H233.912C234.188 480.296 234.411 480.077 234.411 479.808V477.784C234.411 477.514 234.188 477.296 233.912 477.296Z" fill="#423F61"/>
<path id="Vector_10" d="M244.12 477.296H240.013C239.738 477.296 239.515 477.514 239.515 477.784V479.808C239.515 480.077 239.738 480.296 240.013 480.296H244.12C244.395 480.296 244.618 480.077 244.618 479.808V477.784C244.618 477.514 244.395 477.296 244.12 477.296Z" fill="#423F61"/>
<path id="Vector_11" d="M254.328 477.296H250.22C249.945 477.296 249.722 477.514 249.722 477.784V479.808C249.722 480.077 249.945 480.296 250.22 480.296H254.328C254.603 480.296 254.826 480.077 254.826 479.808V477.784C254.826 477.514 254.603 477.296 254.328 477.296Z" fill="#423F61"/>
<path id="Vector_12" d="M264.535 477.296H260.428C260.153 477.296 259.93 477.514 259.93 477.784V479.808C259.93 480.077 260.153 480.296 260.428 480.296H264.535C264.81 480.296 265.033 480.077 265.033 479.808V477.784C265.033 477.514 264.81 477.296 264.535 477.296Z" fill="#423F61"/>
<path id="Vector_13" d="M274.743 477.296H270.636C270.36 477.296 270.137 477.514 270.137 477.784V479.808C270.137 480.077 270.36 480.296 270.636 480.296H274.743C275.018 480.296 275.241 480.077 275.241 479.808V477.784C275.241 477.514 275.018 477.296 274.743 477.296Z" fill="#423F61"/>
<path id="Vector_14" d="M284.95 477.296H280.843C280.568 477.296 280.345 477.514 280.345 477.784V479.808C280.345 480.077 280.568 480.296 280.843 480.296H284.95C285.226 480.296 285.449 480.077 285.449 479.808V477.784C285.449 477.514 285.226 477.296 284.95 477.296Z" fill="#423F61"/>
<path id="Vector_15" d="M295.158 477.296H291.051C290.776 477.296 290.553 477.514 290.553 477.784V479.808C290.553 480.077 290.776 480.296 291.051 480.296H295.158C295.433 480.296 295.656 480.077 295.656 479.808V477.784C295.656 477.514 295.433 477.296 295.158 477.296Z" fill="#423F61"/>
<path id="Vector_16" d="M305.366 477.296H301.259C300.983 477.296 300.76 477.514 300.76 477.784V479.808C300.76 480.077 300.983 480.296 301.259 480.296H305.366C305.641 480.296 305.864 480.077 305.864 479.808V477.784C305.864 477.514 305.641 477.296 305.366 477.296Z" fill="#423F61"/>
<path id="Vector_17" d="M315.573 477.296H311.466C311.191 477.296 310.968 477.514 310.968 477.784V479.808C310.968 480.077 311.191 480.296 311.466 480.296H315.573C315.849 480.296 316.072 480.077 316.072 479.808V477.784C316.072 477.514 315.849 477.296 315.573 477.296Z" fill="#423F61"/>
<path id="Vector_18" d="M325.781 477.296H321.674C321.399 477.296 321.175 477.514 321.175 477.784V479.808C321.175 480.077 321.399 480.296 321.674 480.296H325.781C326.056 480.296 326.279 480.077 326.279 479.808V477.784C326.279 477.514 326.056 477.296 325.781 477.296Z" fill="#423F61"/>
<path id="Vector_19" d="M335.989 477.296H331.881C331.606 477.296 331.383 477.514 331.383 477.784V479.808C331.383 480.077 331.606 480.296 331.881 480.296H335.989C336.264 480.296 336.487 480.077 336.487 479.808V477.784C336.487 477.514 336.264 477.296 335.989 477.296Z" fill="#423F61"/>
<path id="Vector_20" d="M346.196 477.296H342.089C341.814 477.296 341.591 477.514 341.591 477.784V479.808C341.591 480.077 341.814 480.296 342.089 480.296H346.196C346.471 480.296 346.695 480.077 346.695 479.808V477.784C346.695 477.514 346.471 477.296 346.196 477.296Z" fill="#423F61"/>
<path id="Vector_21" d="M356.404 477.296H352.297C352.022 477.296 351.798 477.514 351.798 477.784V479.808C351.798 480.077 352.022 480.296 352.297 480.296H356.404C356.679 480.296 356.902 480.077 356.902 479.808V477.784C356.902 477.514 356.679 477.296 356.404 477.296Z" fill="#423F61"/>
<path id="Vector_22" d="M366.611 477.296H362.504C362.229 477.296 362.006 477.514 362.006 477.784V479.808C362.006 480.077 362.229 480.296 362.504 480.296H366.611C366.886 480.296 367.109 480.077 367.109 479.808V477.784C367.109 477.514 366.886 477.296 366.611 477.296Z" fill="#423F61"/>
<path id="Vector_23" d="M376.819 477.296H372.712C372.436 477.296 372.213 477.514 372.213 477.784V479.808C372.213 480.077 372.436 480.296 372.712 480.296H376.819C377.094 480.296 377.317 480.077 377.317 479.808V477.784C377.317 477.514 377.094 477.296 376.819 477.296Z" fill="#423F61"/>
<path id="Vector_24" d="M223.584 482.296H219.477C219.202 482.296 218.979 482.514 218.979 482.784V484.808C218.979 485.077 219.202 485.296 219.477 485.296H223.584C223.859 485.296 224.083 485.077 224.083 484.808V482.784C224.083 482.514 223.859 482.296 223.584 482.296Z" fill="#423F61"/>
<path id="Vector_25" d="M233.792 482.296H229.685C229.409 482.296 229.186 482.514 229.186 482.784V484.808C229.186 485.077 229.409 485.296 229.685 485.296H233.792C234.067 485.296 234.29 485.077 234.29 484.808V482.784C234.29 482.514 234.067 482.296 233.792 482.296Z" fill="#423F61"/>
<path id="Vector_26" d="M243.999 482.296H239.892C239.617 482.296 239.394 482.514 239.394 482.784V484.808C239.394 485.077 239.617 485.296 239.892 485.296H243.999C244.274 485.296 244.498 485.077 244.498 484.808V482.784C244.498 482.514 244.274 482.296 243.999 482.296Z" fill="#423F61"/>
<path id="Vector_27" d="M254.207 482.296H250.1C249.825 482.296 249.601 482.514 249.601 482.784V484.808C249.601 485.077 249.825 485.296 250.1 485.296H254.207C254.482 485.296 254.705 485.077 254.705 484.808V482.784C254.705 482.514 254.482 482.296 254.207 482.296Z" fill="#423F61"/>
<path id="Vector_28" d="M264.415 482.296H260.308C260.032 482.296 259.809 482.514 259.809 482.784V484.808C259.809 485.077 260.032 485.296 260.308 485.296H264.415C264.69 485.296 264.913 485.077 264.913 484.808V482.784C264.913 482.514 264.69 482.296 264.415 482.296Z" fill="#423F61"/>
<path id="Vector_29" d="M274.622 482.296H270.515C270.24 482.296 270.017 482.514 270.017 482.784V484.808C270.017 485.077 270.24 485.296 270.515 485.296H274.622C274.897 485.296 275.12 485.077 275.12 484.808V482.784C275.12 482.514 274.897 482.296 274.622 482.296Z" fill="#423F61"/>
<path id="Vector_30" d="M284.83 482.296H280.723C280.447 482.296 280.224 482.514 280.224 482.784V484.808C280.224 485.077 280.447 485.296 280.723 485.296H284.83C285.105 485.296 285.328 485.077 285.328 484.808V482.784C285.328 482.514 285.105 482.296 284.83 482.296Z" fill="#423F61"/>
<path id="Vector_31" d="M295.037 482.296H290.93C290.655 482.296 290.432 482.514 290.432 482.784V484.808C290.432 485.077 290.655 485.296 290.93 485.296H295.037C295.313 485.296 295.536 485.077 295.536 484.808V482.784C295.536 482.514 295.313 482.296 295.037 482.296Z" fill="#423F61"/>
<path id="Vector_32" d="M305.245 482.296H301.138C300.863 482.296 300.639 482.514 300.639 482.784V484.808C300.639 485.077 300.863 485.296 301.138 485.296H305.245C305.52 485.296 305.743 485.077 305.743 484.808V482.784C305.743 482.514 305.52 482.296 305.245 482.296Z" fill="#423F61"/>
<path id="Vector_33" d="M315.453 482.296H311.345C311.07 482.296 310.847 482.514 310.847 482.784V484.808C310.847 485.077 311.07 485.296 311.345 485.296H315.453C315.728 485.296 315.951 485.077 315.951 484.808V482.784C315.951 482.514 315.728 482.296 315.453 482.296Z" fill="#423F61"/>
<path id="Vector_34" d="M325.66 482.296H321.553C321.278 482.296 321.055 482.514 321.055 482.784V484.808C321.055 485.077 321.278 485.296 321.553 485.296H325.66C325.935 485.296 326.159 485.077 326.159 484.808V482.784C326.159 482.514 325.935 482.296 325.66 482.296Z" fill="#423F61"/>
<path id="Vector_35" d="M335.868 482.296H331.761C331.485 482.296 331.262 482.514 331.262 482.784V484.808C331.262 485.077 331.485 485.296 331.761 485.296H335.868C336.143 485.296 336.366 485.077 336.366 484.808V482.784C336.366 482.514 336.143 482.296 335.868 482.296Z" fill="#423F61"/>
<path id="Vector_36" d="M346.076 482.296H341.968C341.693 482.296 341.47 482.514 341.47 482.784V484.808C341.47 485.077 341.693 485.296 341.968 485.296H346.076C346.351 485.296 346.574 485.077 346.574 484.808V482.784C346.574 482.514 346.351 482.296 346.076 482.296Z" fill="#423F61"/>
<path id="Vector_37" d="M356.283 482.296H352.176C351.901 482.296 351.678 482.514 351.678 482.784V484.808C351.678 485.077 351.901 485.296 352.176 485.296H356.283C356.558 485.296 356.781 485.077 356.781 484.808V482.784C356.781 482.514 356.558 482.296 356.283 482.296Z" fill="#423F61"/>
<path id="Vector_38" d="M366.491 482.296H362.384C362.108 482.296 361.885 482.514 361.885 482.784V484.808C361.885 485.077 362.108 485.296 362.384 485.296H366.491C366.766 485.296 366.989 485.077 366.989 484.808V482.784C366.989 482.514 366.766 482.296 366.491 482.296Z" fill="#423F61"/>
<path id="Vector_39" d="M376.698 482.296H372.591C372.316 482.296 372.093 482.514 372.093 482.784V484.808C372.093 485.077 372.316 485.296 372.591 485.296H376.698C376.974 485.296 377.197 485.077 377.197 484.808V482.784C377.197 482.514 376.974 482.296 376.698 482.296Z" fill="#423F61"/>
<path id="Vector_40" d="M308.307 488.296H268.473C268.198 488.296 267.975 488.514 267.975 488.784V490.808C267.975 491.077 268.198 491.296 268.473 491.296H308.307C308.582 491.296 308.806 491.077 308.806 490.808V488.784C308.806 488.514 308.582 488.296 308.307 488.296Z" fill="#423F61"/>
<path id="Vector_41" d="M421.317 246.677H160.693C160.422 246.671 160.164 246.561 159.975 246.372C159.785 246.182 159.679 245.927 159.679 245.661C159.679 245.396 159.785 245.141 159.975 244.951C160.164 244.761 160.422 244.652 160.693 244.646H421.317C421.588 244.652 421.846 244.761 422.035 244.951C422.225 245.141 422.331 245.396 422.331 245.661C422.331 245.927 422.225 246.182 422.035 246.372C421.846 246.561 421.588 246.671 421.317 246.677V246.677Z" fill="#423F61"/>
<path id="Vector_42" d="M178.434 239.462C181.789 239.462 184.508 236.738 184.508 233.379C184.508 230.019 181.789 227.296 178.434 227.296C175.079 227.296 172.36 230.019 172.36 233.379C172.36 236.738 175.079 239.462 178.434 239.462Z" fill="#423F61"/>
<path id="Vector_43" d="M199.417 239.462C202.771 239.462 205.491 236.738 205.491 233.379C205.491 230.019 202.771 227.296 199.417 227.296C196.062 227.296 193.343 230.019 193.343 233.379C193.343 236.738 196.062 239.462 199.417 239.462Z" fill="#423F61"/>
<path id="Vector_44" d="M220.4 239.462C223.754 239.462 226.474 236.738 226.474 233.379C226.474 230.019 223.754 227.296 220.4 227.296C217.045 227.296 214.326 230.019 214.326 233.379C214.326 236.738 217.045 239.462 220.4 239.462Z" fill="#423F61"/>
<path id="Vector_45" d="M408.682 228.8H393.779C393.485 228.807 393.204 228.926 392.998 229.133C392.792 229.339 392.677 229.616 392.677 229.905C392.677 230.194 392.792 230.471 392.998 230.677C393.204 230.884 393.485 231.003 393.779 231.01H408.682C408.979 231.006 409.261 230.888 409.47 230.681C409.678 230.474 409.794 230.195 409.794 229.905C409.794 229.615 409.678 229.336 409.47 229.129C409.261 228.922 408.979 228.804 408.682 228.8Z" fill="#423F61"/>
<path id="Vector_46" d="M408.682 232.95H393.779C393.484 232.956 393.204 233.076 392.998 233.282C392.791 233.489 392.676 233.766 392.676 234.055C392.676 234.344 392.791 234.621 392.998 234.828C393.204 235.034 393.484 235.154 393.779 235.16H408.682C408.979 235.157 409.262 235.039 409.471 234.832C409.68 234.625 409.797 234.346 409.797 234.055C409.797 233.764 409.68 233.485 409.471 233.278C409.262 233.071 408.979 232.954 408.682 232.95V232.95Z" fill="#423F61"/>
<path id="Vector_47" d="M408.682 237.1H393.779C393.485 237.107 393.204 237.226 392.998 237.433C392.792 237.639 392.677 237.916 392.677 238.205C392.677 238.494 392.792 238.771 392.998 238.977C393.204 239.184 393.485 239.303 393.779 239.31H408.682C408.979 239.306 409.261 239.188 409.47 238.981C409.678 238.774 409.794 238.495 409.794 238.205C409.794 237.915 409.678 237.636 409.47 237.429C409.261 237.222 408.979 237.104 408.682 237.1V237.1Z" fill="#423F61"/>
<path id="Vector_48" d="M183.166 270.273H177.811C176.187 270.273 174.871 271.563 174.871 273.153C174.871 274.744 176.187 276.033 177.811 276.033H183.166C184.789 276.033 186.105 274.744 186.105 273.153C186.105 271.563 184.789 270.273 183.166 270.273Z" fill="#E6E6E6"/>
<path id="Vector_49" d="M244.411 270.273H239.056C237.433 270.273 236.116 271.563 236.116 273.153C236.116 274.744 237.433 276.033 239.056 276.033H244.411C246.035 276.033 247.351 274.744 247.351 273.153C247.351 271.563 246.035 270.273 244.411 270.273Z" fill="#E6E6E6"/>
<path id="Vector_50" d="M261.764 270.273H256.409C254.786 270.273 253.469 271.563 253.469 273.153C253.469 274.744 254.786 276.033 256.409 276.033H261.764C263.388 276.033 264.704 274.744 264.704 273.153C264.704 271.563 263.388 270.273 261.764 270.273Z" fill="#E6E6E6"/>
<path id="Vector_51" d="M227.752 269.793H194.47C192.846 269.793 191.53 271.083 191.53 272.673C191.53 274.264 192.846 275.553 194.47 275.553H227.752C229.376 275.553 230.692 274.264 230.692 272.673C230.692 271.083 229.376 269.793 227.752 269.793Z" fill="#E6E6E6"/>
<path id="Vector_52" d="M309.413 269.793H276.131C274.507 269.793 273.191 271.083 273.191 272.673C273.191 274.264 274.507 275.553 276.131 275.553H309.413C311.037 275.553 312.353 274.264 312.353 272.673C312.353 271.083 311.037 269.793 309.413 269.793Z" fill="#E6E6E6"/>
<path id="Vector_53" d="M199.498 283.273H194.143C192.519 283.273 191.203 284.563 191.203 286.153C191.203 287.744 192.519 289.033 194.143 289.033H199.498C201.121 289.033 202.438 287.744 202.438 286.153C202.438 284.563 201.121 283.273 199.498 283.273Z" fill="#E6E6E6"/>
<path id="Vector_54" d="M260.743 283.273H255.388C253.765 283.273 252.449 284.563 252.449 286.153C252.449 287.744 253.765 289.033 255.388 289.033H260.743C262.367 289.033 263.683 287.744 263.683 286.153C263.683 284.563 262.367 283.273 260.743 283.273Z" fill="#E6E6E6"/>
<path id="Vector_55" d="M278.096 283.273H272.741C271.117 283.273 269.801 284.563 269.801 286.153C269.801 287.744 271.117 289.033 272.741 289.033H278.096C279.72 289.033 281.036 287.744 281.036 286.153C281.036 284.563 279.72 283.273 278.096 283.273Z" fill="#E6E6E6"/>
<path id="Vector_56" d="M244.084 282.793H210.802C209.178 282.793 207.862 284.083 207.862 285.673C207.862 287.264 209.178 288.553 210.802 288.553H244.084C245.708 288.553 247.024 287.264 247.024 285.673C247.024 284.083 245.708 282.793 244.084 282.793Z" fill="#E6E6E6"/>
<path id="Vector_57" d="M325.745 282.793H292.463C290.839 282.793 289.523 284.083 289.523 285.673C289.523 287.264 290.839 288.553 292.463 288.553H325.745C327.369 288.553 328.685 287.264 328.685 285.673C328.685 284.083 327.369 282.793 325.745 282.793Z" fill="#E6E6E6"/>
<path id="Vector_58" d="M215.83 296.273H210.475C208.851 296.273 207.535 297.563 207.535 299.153C207.535 300.744 208.851 302.033 210.475 302.033H215.83C217.454 302.033 218.77 300.744 218.77 299.153C218.77 297.563 217.454 296.273 215.83 296.273Z" fill="#E6E6E6"/>
<path id="Vector_59" d="M277.076 296.273H271.721C270.097 296.273 268.781 297.563 268.781 299.153C268.781 300.744 270.097 302.033 271.721 302.033H277.076C278.699 302.033 280.015 300.744 280.015 299.153C280.015 297.563 278.699 296.273 277.076 296.273Z" fill="#E6E6E6"/>
<path id="Vector_60" d="M294.429 296.273H289.074C287.45 296.273 286.134 297.563 286.134 299.153C286.134 300.744 287.45 302.033 289.074 302.033H294.429C296.052 302.033 297.369 300.744 297.369 299.153C297.369 297.563 296.052 296.273 294.429 296.273Z" fill="#E6E6E6"/>
<path id="Vector_61" d="M260.417 295.793H227.134C225.51 295.793 224.194 297.083 224.194 298.673C224.194 300.264 225.51 301.553 227.134 301.553H260.417C262.04 301.553 263.356 300.264 263.356 298.673C263.356 297.083 262.04 295.793 260.417 295.793Z" fill="#E6E6E6"/>
<path id="Vector_62" d="M342.078 295.793H308.795C307.171 295.793 305.855 297.083 305.855 298.673C305.855 300.264 307.171 301.553 308.795 301.553H342.078C343.701 301.553 345.017 300.264 345.017 298.673C345.017 297.083 343.701 295.793 342.078 295.793Z" fill="#E6E6E6"/>
<path id="Vector_63" d="M232.162 309.273H226.807C225.184 309.273 223.867 310.563 223.867 312.153C223.867 313.744 225.184 315.033 226.807 315.033H232.162C233.786 315.033 235.102 313.744 235.102 312.153C235.102 310.563 233.786 309.273 232.162 309.273Z" fill="#E6E6E6"/>
<path id="Vector_64" d="M293.408 309.273H288.053C286.429 309.273 285.113 310.563 285.113 312.153C285.113 313.744 286.429 315.033 288.053 315.033H293.408C295.031 315.033 296.348 313.744 296.348 312.153C296.348 310.563 295.031 309.273 293.408 309.273Z" fill="#E6E6E6"/>
<path id="Vector_65" d="M310.761 309.273H305.406C303.782 309.273 302.466 310.563 302.466 312.153C302.466 313.744 303.782 315.033 305.406 315.033H310.761C312.385 315.033 313.701 313.744 313.701 312.153C313.701 310.563 312.385 309.273 310.761 309.273Z" fill="#E6E6E6"/>
<path id="Vector_66" d="M276.749 308.793H243.466C241.843 308.793 240.526 310.083 240.526 311.673C240.526 313.264 241.843 314.553 243.466 314.553H276.749C278.372 314.553 279.689 313.264 279.689 311.673C279.689 310.083 278.372 308.793 276.749 308.793Z" fill="#E6E6E6"/>
<path id="Vector_67" d="M244.411 360.967H239.056C237.433 360.967 236.116 362.256 236.116 363.847C236.116 365.437 237.433 366.727 239.056 366.727H244.411C246.035 366.727 247.351 365.437 247.351 363.847C247.351 362.256 246.035 360.967 244.411 360.967Z" fill="#E6E6E6"/>
<path id="Vector_68" d="M261.764 360.967H256.409C254.786 360.967 253.469 362.256 253.469 363.847C253.469 365.437 254.786 366.727 256.409 366.727H261.764C263.388 366.727 264.704 365.437 264.704 363.847C264.704 362.256 263.388 360.967 261.764 360.967Z" fill="#E6E6E6"/>
<path id="Vector_69" d="M309.413 361.447H276.131C274.507 361.447 273.191 362.736 273.191 364.327C273.191 365.917 274.507 367.207 276.131 367.207H309.413C311.037 367.207 312.353 365.917 312.353 364.327C312.353 362.736 311.037 361.447 309.413 361.447Z" fill="#E6E6E6"/>
<path id="Vector_70" d="M183.166 360.967H177.811C176.187 360.967 174.871 362.256 174.871 363.847C174.871 365.437 176.187 366.727 177.811 366.727H183.166C184.789 366.727 186.105 365.437 186.105 363.847C186.105 362.256 184.789 360.967 183.166 360.967Z" fill="#E6E6E6"/>
<path id="Vector_71" d="M227.752 361.447H194.47C192.846 361.447 191.53 362.736 191.53 364.327C191.53 365.917 192.846 367.207 194.47 367.207H227.752C229.376 367.207 230.692 365.917 230.692 364.327C230.692 362.736 229.376 361.447 227.752 361.447Z" fill="#E6E6E6"/>
<path id="Vector_72" d="M199.498 347.967H194.143C192.519 347.967 191.203 349.256 191.203 350.847C191.203 352.437 192.519 353.727 194.143 353.727H199.498C201.121 353.727 202.438 352.437 202.438 350.847C202.438 349.256 201.121 347.967 199.498 347.967Z" fill="#E6E6E6"/>
<path id="Vector_73" d="M260.743 347.967H255.388C253.765 347.967 252.449 349.256 252.449 350.847C252.449 352.437 253.765 353.727 255.388 353.727H260.743C262.367 353.727 263.683 352.437 263.683 350.847C263.683 349.256 262.367 347.967 260.743 347.967Z" fill="#E6E6E6"/>
<path id="Vector_74" d="M278.096 347.967H272.741C271.117 347.967 269.801 349.256 269.801 350.847C269.801 352.437 271.117 353.727 272.741 353.727H278.096C279.72 353.727 281.036 352.437 281.036 350.847C281.036 349.256 279.72 347.967 278.096 347.967Z" fill="#E6E6E6"/>
<path id="Vector_75" d="M244.084 348.447H210.802C209.178 348.447 207.862 349.736 207.862 351.327C207.862 352.917 209.178 354.207 210.802 354.207H244.084C245.708 354.207 247.024 352.917 247.024 351.327C247.024 349.736 245.708 348.447 244.084 348.447Z" fill="#E6E6E6"/>
<path id="Vector_76" d="M215.83 334.967H210.475C208.851 334.967 207.535 336.256 207.535 337.847C207.535 339.437 208.851 340.727 210.475 340.727H215.83C217.454 340.727 218.77 339.437 218.77 337.847C218.77 336.256 217.454 334.967 215.83 334.967Z" fill="#E6E6E6"/>
<path id="Vector_77" d="M277.076 334.967H271.721C270.097 334.967 268.781 336.256 268.781 337.847C268.781 339.437 270.097 340.727 271.721 340.727H277.076C278.699 340.727 280.015 339.437 280.015 337.847C280.015 336.256 278.699 334.967 277.076 334.967Z" fill="#E6E6E6"/>
<path id="Vector_78" d="M294.429 334.967H289.074C287.45 334.967 286.134 336.256 286.134 337.847C286.134 339.437 287.45 340.727 289.074 340.727H294.429C296.052 340.727 297.369 339.437 297.369 337.847C297.369 336.256 296.052 334.967 294.429 334.967Z" fill="#E6E6E6"/>
<path id="Vector_79" d="M260.417 335.447H227.134C225.51 335.447 224.194 336.736 224.194 338.327C224.194 339.917 225.51 341.207 227.134 341.207H260.417C262.04 341.207 263.356 339.917 263.356 338.327C263.356 336.736 262.04 335.447 260.417 335.447Z" fill="#E6E6E6"/>
<path id="Vector_80" d="M232.162 321.967H226.807C225.184 321.967 223.867 323.256 223.867 324.847C223.867 326.437 225.184 327.727 226.807 327.727H232.162C233.786 327.727 235.102 326.437 235.102 324.847C235.102 323.256 233.786 321.967 232.162 321.967Z" fill="#E6E6E6"/>
<path id="Vector_81" d="M293.408 321.967H288.053C286.429 321.967 285.113 323.256 285.113 324.847C285.113 326.437 286.429 327.727 288.053 327.727H293.408C295.031 327.727 296.348 326.437 296.348 324.847C296.348 323.256 295.031 321.967 293.408 321.967Z" fill="#E6E6E6"/>
<path id="Vector_82" d="M310.761 321.967H305.406C303.782 321.967 302.466 323.256 302.466 324.847C302.466 326.437 303.782 327.727 305.406 327.727H310.761C312.385 327.727 313.701 326.437 313.701 324.847C313.701 323.256 312.385 321.967 310.761 321.967Z" fill="#E6E6E6"/>
<path id="Vector_83" d="M276.749 322.447H243.466C241.843 322.447 240.526 323.736 240.526 325.327C240.526 326.917 241.843 328.207 243.466 328.207H276.749C278.372 328.207 279.689 326.917 279.689 325.327C279.689 323.736 278.372 322.447 276.749 322.447Z" fill="#E6E6E6"/>
<path id="Vector_84" d="M424.442 548.77C423.82 549.08 423.187 549.39 422.564 549.69C406.436 557.59 393.534 562.08 375.885 567C374.395 550.7 372.955 522.05 371.557 504.29C371.189 499.68 370.822 495.81 370.465 493.08C370.375 491.629 370.072 490.197 369.566 488.83L369.628 493.08L369.781 504.29L370.669 568.4C348.715 574.091 326.163 577.275 303.462 577.89C302.278 577.92 301.114 577.94 299.991 577.96C299.593 577.97 299.205 577.98 298.817 577.98C297.542 577.99 296.276 578 295 578C271.077 578.017 247.241 575.187 224.016 569.57C224.516 553.44 225.016 525.11 225.496 504.29C225.598 500.22 225.69 496.43 225.792 493.08C225.986 485.92 226.19 480.76 226.384 479.03C226.212 479.337 226.079 479.662 225.986 480C225.041 484.312 224.396 488.682 224.057 493.08C223.7 496.43 223.342 500.22 222.985 504.29C221.087 525.92 219.106 555.33 217.065 567.8C204.913 564.55 192.99 560.532 181.369 555.77C175.244 553.27 169.229 550.573 163.322 547.68C164.445 540.48 165.618 532.41 166.823 524.04C167.762 517.55 168.732 510.88 169.722 504.29C171.253 494.11 172.825 484.13 174.417 475.34C176.745 462.5 179.133 452.18 181.501 447.44C183.747 442.94 185.993 438.5 188.167 434.25C188.922 432.76 189.678 431.29 190.413 429.86C190.586 429.52 190.76 429.19 190.933 428.86C192.495 425.85 194.006 422.97 195.445 420.27C196.68 417.96 197.854 415.78 198.967 413.77C201.662 408.89 203.948 405 205.642 402.54C212.727 392.013 223.273 384.176 235.53 380.33L235.837 380.25L236.051 380.34L256.925 374.06L259.978 373.14L262.029 372.52L269.256 367.13L273.186 364.2L276.871 361.45L284.078 356.08L328.695 358.77L337.382 379.26L356.838 386.23L357.174 386.08L357.47 385.96L357.777 386.04C370.032 389.889 380.577 397.726 387.665 408.25C388.624 409.66 389.788 411.52 391.104 413.77C392.227 415.68 393.452 417.86 394.779 420.27C396.668 423.7 398.73 427.57 400.914 431.76C401.394 432.68 401.884 433.62 402.374 434.57C403.282 436.33 404.204 438.127 405.14 439.96C407.314 444.21 409.56 448.65 411.805 453.16C413.755 457.07 415.725 465.11 417.665 475.34C419.267 483.84 420.86 493.86 422.401 504.29C424.422 517.81 422.268 534 424.095 546.44C424.208 547.23 424.33 548 424.442 548.77Z" fill="#423F61"/>
<path id="Vector_85" d="M295.628 339.725C324.287 339.725 347.52 316.964 347.52 288.888C347.52 260.812 324.287 238.052 295.628 238.052C266.969 238.052 243.736 260.812 243.736 288.888C243.736 316.964 266.969 339.725 295.628 339.725Z" fill="#A0616A"/>
<path id="Vector_86" d="M381.203 221.52C380.178 219.174 378.813 216.985 377.151 215.02C369.271 205.59 354.939 201.44 340.23 212.6C337.399 211.98 334.447 212.146 331.707 213.08C330.413 213.539 329.201 214.194 328.114 215.02C325.886 216.722 324.149 218.962 323.071 221.52C322.495 222.871 322.117 224.295 321.948 225.75C318.312 223.899 314.464 222.479 310.485 221.52C300.722 219.141 290.513 219.141 280.75 221.52C277.622 222.295 274.609 223.465 271.788 225C267.011 227.7 264.265 231.11 263.775 234.9C256.885 235.28 249.719 238.83 244.38 244.65C243.778 245.3 243.196 245.98 242.655 246.68C238.166 252.435 235.753 259.487 235.796 266.73V268H237.092C240.644 267.997 244.163 268.669 247.453 269.98C249.585 270.819 251.604 271.91 253.465 273.23C254.683 274.076 255.833 275.012 256.905 276.03C259.392 278.388 261.498 281.102 263.152 284.08C267.393 291.605 268.864 300.329 267.317 308.79C266.962 310.749 266.443 312.675 265.765 314.55C264.801 317.225 263.531 319.785 261.978 322.18C261.917 322.27 261.866 322.36 261.805 322.45C261.121 323.52 260.468 324.61 259.855 325.71C259.396 326.53 258.967 327.37 258.569 328.21C257.406 330.548 256.423 332.968 255.629 335.45C254.209 339.84 253.372 344.391 253.139 348.99C253.067 350.21 253.047 351.43 253.088 352.65C253.148 355.795 253.5 358.928 254.139 362.01C254.231 362.43 254.323 362.84 254.415 363.26L255.16 366.45L256.926 374.06L258.151 379.3L259.284 384.16L260.958 381.81C261.529 381.01 262.969 378.55 264.898 375.07C266.174 372.8 267.654 370.09 269.256 367.13C271.492 362.98 273.942 358.35 276.34 353.73C277.31 351.86 278.27 350 279.199 348.18C280.954 344.73 282.608 341.4 284.027 338.44C285.333 335.71 286.446 333.29 287.273 331.35C287.528 332.62 287.742 333.91 287.906 335.21C288.089 336.53 288.222 337.87 288.294 339.21C288.314 339.41 288.324 339.62 288.334 339.82L288.375 340.64L288.386 340.88L289.468 341.02C295.708 341.675 302 341.722 308.25 341.16H308.26C316.54 340.549 324.662 338.621 332.309 335.45C336.652 333.604 340.707 331.167 344.354 328.21C346.058 326.828 347.649 325.317 349.111 323.69C349.478 323.28 349.835 322.87 350.182 322.45C352.203 320.018 353.932 317.367 355.337 314.55C356.278 312.691 357.077 310.766 357.726 308.79C361.646 297.16 361.421 282.65 357.052 265.41C358.232 265.187 359.363 264.761 360.39 264.15C363.595 262.26 365.82 258.51 366.515 253.93L367.617 254.22C371.525 252.437 375.007 249.868 377.835 246.68C378.395 246.031 378.92 245.353 379.407 244.65C384.398 237.45 384.439 228.81 381.203 221.52Z" fill="#1B1A2F"/>
<path id="Vector_87" opacity="0.2" d="M210.603 475.296L219.277 442.504L226.936 470.8L210.603 475.296Z" fill="black"/>
<path id="Vector_88" d="M441.408 453.93C438.305 495.81 441.52 514.25 424.392 548.78C408.807 556.253 392.574 562.35 375.885 567C374.15 567.48 372.411 567.947 370.669 568.4C348.715 574.091 326.163 577.275 303.462 577.89C302.278 577.92 301.114 577.94 299.991 577.96C299.593 577.97 299.205 577.98 298.818 577.98C297.542 577.99 296.276 578 295 578C271.078 578.017 247.242 575.187 224.016 569.57C221.689 569.01 219.372 568.42 217.065 567.8C204.913 564.55 192.99 560.532 181.369 555.77C175.244 553.27 169.229 550.573 163.322 547.68C161.985 547.02 160.647 546.36 159.331 545.68C152.563 534.02 148.715 519.84 148.633 502.8C153.318 473.44 431.057 428.61 441.408 453.93Z" fill="#232236"/>
<path id="Vector_89" opacity="0.2" d="M441.4 461.102C441.558 458.509 441.735 455.831 441.942 453.042C431.591 427.722 153.853 472.552 149.167 501.912C149.18 504.604 149.298 507.216 149.495 509.767C160.842 480.789 424.697 438.181 441.4 461.102Z" fill="black"/>
<path id="Vector_90" d="M166.482 342.152C166.549 341.245 166.418 340.335 166.096 339.482C165.775 338.629 165.27 337.854 164.617 337.208C163.964 336.562 163.177 336.061 162.31 335.738C161.443 335.415 160.515 335.278 159.589 335.336C159.244 335.349 158.9 335.391 158.563 335.462L117.975 344.444C117.068 344.66 116.217 345.059 115.477 345.616C114.737 346.173 114.125 346.876 113.679 347.679C113.084 347.701 112.493 347.785 111.916 347.931C110.653 348.211 109.458 348.732 108.401 349.465C107.344 350.198 106.444 351.127 105.753 352.2C105.063 353.274 104.595 354.47 104.376 355.72C104.157 356.971 104.192 358.251 104.478 359.489C104.764 360.726 105.296 361.896 106.044 362.932C106.792 363.968 107.741 364.849 108.836 365.526C111.049 366.892 113.725 367.342 116.276 366.775C117.728 366.445 119.086 365.801 120.251 364.891L134.005 402.831C134.692 404.02 135.753 404.96 137.03 405.509C138.307 406.058 139.732 406.187 141.09 405.878L167.475 400.036C168.823 399.727 170.037 399.007 170.941 397.98C171.845 396.953 172.394 395.671 172.509 394.32L166.482 342.152ZM115.667 364.074C113.845 364.477 111.935 364.155 110.354 363.18C108.774 362.205 107.653 360.656 107.237 358.872C106.822 357.088 107.145 355.216 108.136 353.665C109.127 352.115 110.705 351.013 112.525 350.6C112.653 350.569 112.781 350.6 112.91 350.569C112.9 351.713 113.199 352.84 113.775 353.835L118.808 362.441C117.932 363.255 116.846 363.82 115.667 364.074Z" fill="#232236"/>
<path id="Vector_91" d="M159.589 335.336C159.973 340.361 151.189 346.14 139.423 348.433C128.619 350.6 118.937 349.093 116.212 345.135C116.759 344.817 117.354 344.584 117.975 344.444L158.563 335.462C158.9 335.391 159.244 335.349 159.589 335.336V335.336Z" fill="#423F61"/>
<path id="Vector_92" d="M131.518 462.905L154.316 451.738L135.318 401.488L130.311 376.146C129.661 372.853 128.139 369.786 125.9 367.25C123.66 364.714 120.78 362.798 117.548 361.694C114.316 360.59 110.844 360.336 107.48 360.958C104.117 361.58 100.978 363.056 98.3794 365.238V365.238C94.5279 368.472 92.1097 373.046 91.635 377.994C91.1603 382.941 92.6663 387.876 95.8351 391.757L114.42 414.516L131.518 462.905Z" fill="#A0616A"/>
<path id="Vector_93" d="M154.316 442.433L123.919 457.322L146.987 528.131C148.643 533.216 151.613 537.795 155.607 541.424C159.602 545.054 164.486 547.611 169.786 548.847V548.847C176.322 550.372 183.183 549.817 189.375 547.265C195.567 544.712 200.768 540.294 204.224 534.65L265.393 431.936C269.728 424.859 271.066 416.401 269.121 408.37C267.177 400.338 262.104 393.371 254.986 388.954V388.954C251.158 386.579 246.862 385.02 242.378 384.379C237.894 383.738 233.323 384.029 228.961 385.233C224.599 386.437 220.546 388.527 217.063 391.368C213.581 394.208 210.748 397.735 208.749 401.719L171.414 479.656L154.316 442.433Z" fill="#423F61"/>
<path id="Vector_94" d="M144.914 378.441C144.858 378.441 144.802 378.432 144.748 378.414L138.112 376.176C138.032 376.149 137.96 376.103 137.902 376.042C137.845 375.981 137.804 375.907 137.783 375.826C137.762 375.746 137.762 375.661 137.783 375.581C137.804 375.5 137.845 375.426 137.902 375.365L142.838 370.101C142.883 370.052 142.938 370.012 142.998 369.985C143.059 369.957 143.125 369.941 143.192 369.938C143.259 369.935 143.326 369.945 143.389 369.967C143.453 369.99 143.511 370.024 143.56 370.069C143.61 370.113 143.65 370.167 143.678 370.227C143.706 370.286 143.722 370.351 143.725 370.417C143.728 370.482 143.717 370.548 143.694 370.61C143.671 370.671 143.635 370.728 143.589 370.776L139.181 375.479L145.08 377.469C145.194 377.507 145.291 377.584 145.353 377.686C145.415 377.787 145.438 377.907 145.418 378.024C145.398 378.141 145.336 378.247 145.244 378.323C145.152 378.4 145.035 378.441 144.914 378.441V378.441Z" fill="#6C63FF"/>
<path id="Vector_95" d="M154.011 376.617C153.909 376.617 153.81 376.587 153.726 376.532C153.641 376.476 153.576 376.397 153.538 376.305C153.5 376.212 153.491 376.111 153.512 376.014C153.533 375.916 153.583 375.827 153.656 375.758L158.142 371.509L152.116 369.076C152.054 369.051 151.997 369.015 151.95 368.968C151.902 368.922 151.865 368.867 151.839 368.806C151.813 368.746 151.799 368.681 151.799 368.615C151.799 368.549 151.812 368.484 151.838 368.423C151.863 368.363 151.901 368.307 151.948 368.261C151.996 368.214 152.052 368.178 152.114 368.152C152.176 368.127 152.242 368.114 152.309 368.114C152.376 368.114 152.443 368.127 152.505 368.152L159.251 370.876C159.33 370.908 159.399 370.958 159.452 371.022C159.506 371.086 159.542 371.163 159.558 371.244C159.574 371.326 159.569 371.41 159.544 371.489C159.518 371.568 159.473 371.64 159.412 371.697L154.366 376.477C154.271 376.567 154.143 376.617 154.011 376.617V376.617Z" fill="#6C63FF"/>
<path id="Vector_96" d="M146.307 381.5C146.256 381.5 146.206 381.493 146.157 381.478C146.093 381.458 146.034 381.427 145.982 381.385C145.93 381.343 145.887 381.292 145.856 381.234C145.825 381.176 145.805 381.112 145.799 381.047C145.793 380.981 145.8 380.915 145.819 380.853L150.53 365.853C150.57 365.726 150.66 365.621 150.78 365.559C150.899 365.497 151.039 365.485 151.168 365.524C151.297 365.563 151.405 365.65 151.468 365.767C151.532 365.884 151.545 366.021 151.506 366.147L146.795 381.147C146.763 381.25 146.698 381.339 146.61 381.402C146.523 381.466 146.416 381.5 146.307 381.5V381.5Z" fill="#6C63FF"/>
</g>
<defs>
<clipPath id="clip0_0_1">
<rect width="590" height="578" fill="white"/>
</clipPath>
</defs>
</svg>
